<?xml version="1.0" encoding="utf-8"?>
<!-- Generator: Adobe Illustrator 16.0.0, SVG Export Plug-In . SVG Version: 6.00 Build 0)  -->
<!DOCTYPE svg PUBLIC "-//W3C//DTD SVG 1.1//EN" "http://www.w3.org/Graphics/SVG/1.1/DTD/svg11.dtd">
<svg version="1.1" id="Capa_1" xmlns="http://www.w3.org/2000/svg" xmlns:xlink="http://www.w3.org/1999/xlink" x="0px" y="0px"
	 width="838.23px" height="148.238px" viewBox="0 0 838.23 148.238" enable-background="new 0 0 838.23 148.238"
	 xml:space="preserve">
<g transform="translate(327.924 367.731)">
	<g transform="translate(0 0)">
		<path fill="#1A1A1A" d="M-96.285-325.797c-2.295-2.744-5.227-4.878-8.546-6.218c-5.167-1.914-10.474-3.399-15.869-4.448
			c-4.221-0.75-8.292-2.146-12.1-4.132c-2.307-1.313-3.688-3.795-3.608-6.444c-0.092-3.125,1.44-6.078,4.06-7.785
			c3.299-2.006,7.116-2.976,10.97-2.778c6.585,0.187,13.056,1.774,18.972,4.671v-10.52c-1.546-0.729-3.137-1.359-4.752-1.914
			c-4.59-1.51-9.39-2.26-14.22-2.248c-4.947-0.092-9.851,0.842-14.416,2.744c-3.863,1.592-7.196,4.23-9.652,7.609
			c-2.261,3.229-3.46,7.081-3.414,11.025c-0.139,3.494,0.842,6.931,2.803,9.826c2.182,2.813,5.051,5.004,8.338,6.354
			c4.647,1.96,9.491,3.438,14.439,4.396c4.682,0.818,9.249,2.168,13.62,4.022c2.353,1.179,3.828,3.609,3.771,6.239
			c0.069,2.986-1.485,5.777-4.06,7.288c-3.967,1.903-8.352,2.778-12.743,2.584c-4.221,0.034-8.419-0.577-12.444-1.812
			c-4.67-1.787-9.075-4.188-13.101-7.149v11.971c3.146,2.021,6.539,3.621,10.103,4.774c4.982,1.486,10.148,2.226,15.34,2.191
			c5.56,0.104,11.083-0.764,16.354-2.537c3.887-1.42,7.277-3.945,9.745-7.256c2.261-3.219,3.438-7.06,3.368-10.99
			C-93.217-319.718-94.256-323.063-96.285-325.797z"/>
		<path fill="#1A1A1A" d="M-32.152-311.645l-14.139-41.273h-8.018l-14.529,41.045l-13.841-41.045h-11.495l20.38,57.316h9.146
			l14.059-39.64l13.989,39.64h9.146l20.459-57.316H-17.93L-32.152-311.645z"/>
		<rect x="1.236" y="-352.932" fill="#1A1A1A" width="11.35" height="57.316"/>
		<path fill="#1A1A1A" d="M58.577-325.163c-3.806-1.559-7.736-2.756-11.764-3.586c-3.298-0.588-6.504-1.672-9.479-3.221
			c-1.675-0.934-2.678-2.73-2.606-4.646c-0.081-2.307,1.049-4.485,2.998-5.73c2.537-1.531,5.467-2.271,8.431-2.122
			c5.236,0.161,10.382,1.441,15.073,3.748l0.669,0.323v-9.711l-0.266-0.127c-1.279-0.6-2.595-1.131-3.935-1.58
			c-3.725-1.223-7.623-1.834-11.544-1.822c-4.023-0.066-8.024,0.692-11.738,2.237c-3.186,1.315-5.939,3.495-7.958,6.274
			c-1.882,2.674-2.871,5.869-2.837,9.146c-0.104,2.905,0.715,5.776,2.353,8.188c1.8,2.33,4.175,4.149,6.896,5.271
			c3.747,1.58,7.656,2.771,11.646,3.553c3.356,0.611,6.62,1.675,9.699,3.148c1.707,0.829,2.768,2.583,2.722,4.475
			c0.069,2.191-1.084,4.244-2.976,5.328c-2.71,1.465-5.769,2.146-8.848,1.974c-3.298-0.021-6.585-0.509-9.769-1.418
			c-3.586-1.291-7.023-2.953-10.264-4.959v10.4l0.208,0.141c2.26,1.418,4.728,2.502,7.3,3.217c4.023,1.21,8.223,1.812,12.421,1.789
			c4.175,0.08,8.338-0.623,12.259-2.076c3.206-1.178,6.009-3.264,8.05-5.998c1.868-2.663,2.849-5.846,2.792-9.109
			c0.104-2.857-0.771-5.675-2.479-7.97C63.732-322.292,61.31-324.054,58.577-325.163z"/>
		<path fill="#1A1A1A" d="M112.166-325.163c-3.807-1.559-7.736-2.756-11.762-3.586c-3.313-0.588-6.506-1.672-9.48-3.221
			c-1.674-0.934-2.677-2.73-2.605-4.646c-0.08-2.307,1.05-4.485,2.998-5.73c2.537-1.531,5.468-2.271,8.431-2.122
			c5.234,0.161,10.379,1.441,15.084,3.748l0.67,0.323v-9.711l-0.266-0.127c-1.279-0.6-2.596-1.131-3.934-1.58
			c-3.727-1.223-7.623-1.834-11.545-1.822c-4.023-0.066-8.025,0.692-11.74,2.237c-3.185,1.315-5.938,3.495-7.957,6.274
			c-1.88,2.674-2.872,5.869-2.837,9.146c-0.116,2.905,0.715,5.776,2.354,8.188c1.799,2.33,4.175,4.149,6.896,5.271
			c3.748,1.58,7.658,2.771,11.646,3.553c3.355,0.611,6.621,1.675,9.699,3.148c1.707,0.829,2.77,2.583,2.723,4.475
			c0.068,2.191-1.084,4.231-2.977,5.328c-2.711,1.465-5.766,2.146-8.846,1.974c-3.299-0.021-6.586-0.509-9.77-1.418
			c-3.587-1.291-7.021-2.953-10.266-4.959v10.4l0.208,0.141c2.262,1.418,4.729,2.502,7.3,3.217c4.025,1.21,8.225,1.812,12.422,1.789
			c4.174,0.08,8.338-0.623,12.26-2.076c3.205-1.178,6.01-3.264,8.051-5.998c1.867-2.663,2.85-5.846,2.791-9.109
			c0.104-2.857-0.773-5.675-2.479-7.97C117.334-322.292,114.912-324.054,112.166-325.163z"/>
		<path fill="#1A1A1A" d="M181.031-316.57l-19.281-36.353h-8.996v57.316h10.139l-0.08-35.521l14.383,26.396h7.508l14.299-26.756
			v35.89h10.148v-57.34h-8.904L181.031-316.57z"/>
		<path fill="#1A1A1A" d="M220.31-295.603h39.086v-9.077H231.43v-15.558h26.354v-9.008H231.43v-14.59h27.967v-9.088H220.31V-295.603
			z"/>
		<path fill="#1A1A1A" d="M290.314-352.932H268.83v57.33h21.484c9.398,0,16.814-2.549,22.027-7.578
			c5.213-5.025,7.863-12.133,7.863-21.128c0-8.996-2.641-16.088-7.863-21.094C307.119-350.407,299.713-352.932,290.314-352.932z
			 M280.189-343.614h9.479c12.906,0,19.182,6.309,19.182,19.294c0,13.044-6.273,19.375-19.182,19.375h-9.479V-343.614z"/>
		<rect x="329.328" y="-352.932" fill="#1A1A1A" width="11.35" height="57.316"/>
		<path fill="#1A1A1A" d="M377.869-344.329c3.08,0.092,6.137,0.588,9.076,1.476c2.457,0.715,4.844,1.64,7.139,2.757l-0.078-9.939
			c-1.742-0.81-3.529-1.498-5.354-2.075c-3.553-1.072-7.242-1.593-10.943-1.534c-5.201-0.115-10.334,1.131-14.898,3.622
			c-4.211,2.375-7.623,5.95-9.793,10.274c-4.543,9.813-4.543,21.129,0,30.94c2.17,4.336,5.582,7.923,9.793,10.313
			c4.564,2.49,9.697,3.734,14.898,3.621c5.641,0.066,11.211-1.166,16.297-3.61l0.104-9.938c-5.072,2.469-10.598,3.907-16.236,4.23
			c-4.691,0.253-9.236-1.627-12.375-5.121c-5.836-9.107-5.836-20.782,0-29.881C368.621-342.704,373.178-344.594,377.869-344.329z"/>
		<path fill="#1A1A1A" d="M435.305-352.932h-9.076l-26.215,57.33h11.533l5.729-13.206H444.4l5.732,13.206h11.371L435.305-352.932z
			 M440.529-317.723h-19.443l9.725-22.373L440.529-317.723z"/>
		<g transform="translate(258.524 0.94)">
			<path fill="#1A1A1A" d="M221.45-366.306H210.3v69.763h41.482v-9.597h-30.344L221.45-366.306z"/>
		</g>
	</g>
</g>
<g>
	<path fill="#6F6F6E" d="M611.365,107.314c-1.533-0.934-3.32-1.359-5.119-1.211h-7.855v10.195h7.855
		c1.799,0.148,3.598-0.277,5.119-1.234C613.477,112.91,613.477,109.473,611.365,107.314z"/>
	<path fill="#6F6F6E" d="M696.984,108.32c-0.23,0.207-0.451,0.426-0.658,0.645c-3.494,5.775-3.48,13.021,0.023,18.799
		c3.598,4.023,9.791,4.371,13.814,0.762c0.277-0.242,0.531-0.496,0.773-0.762c3.539-5.77,3.551-13.021,0.021-18.799
		C707.281,104.93,701.021,104.629,696.984,108.32z"/>
	<path fill="#6F6F6E" d="M179.769,89.156v59.082h658.473V89.156H179.769z M229.022,134.348c-3.356,2.203-7.335,3.266-11.337,3.021
		c-2.77,0.023-5.502-0.354-8.144-1.117c-2.342-0.623-4.544-1.686-6.479-3.125l2.629-5.836c3.541,2.469,7.762,3.783,12.075,3.734
		c1.854,0.105,3.702-0.287,5.351-1.129c1.165-0.611,1.88-1.813,1.869-3.125c0.011-1.178-0.658-2.262-1.719-2.791
		c-1.926-0.938-3.979-1.58-6.09-1.949c-2.698-0.482-5.328-1.291-7.83-2.422c-1.721-0.75-3.194-1.961-4.27-3.494
		c-0.934-1.545-1.404-3.322-1.349-5.121c-0.035-2.145,0.622-4.244,1.868-5.996c1.349-1.834,3.16-3.252,5.259-4.129
		c2.468-1.037,5.12-1.559,7.808-1.5c2.583-0.012,5.155,0.381,7.623,1.152c2.146,0.611,4.129,1.674,5.824,3.104l-2.63,5.836
		c-3.091-2.375-6.861-3.688-10.748-3.734c-1.776-0.092-3.529,0.334-5.063,1.232c-1.178,0.729-1.882,2.008-1.847,3.393
		c-0.021,0.762,0.23,1.498,0.715,2.076c0.669,0.654,1.479,1.15,2.376,1.439c1.545,0.541,3.113,0.979,4.719,1.313
		c3.679,0.602,7.194,1.982,10.311,4.049c2.087,1.639,3.252,4.188,3.137,6.838C233.197,129.332,231.675,132.445,229.022,134.348z
		 M327.983,106.209h-17.61v8.674h16.563v6.365h-16.563v9.309h17.61v6.354h-25.625V99.846h25.625L327.983,106.209L327.983,106.209z
		 M428.791,134.602c-2.02,0.947-4.141,1.639-6.33,2.055c-2.471,0.496-4.972,0.736-7.484,0.736c-3.54,0.094-7.06-0.689-10.229-2.281
		c-2.825-1.467-5.145-3.762-6.644-6.574c-3.079-6.391-3.093-13.84-0.022-20.238c1.479-2.805,3.771-5.109,6.563-6.598
		c3.079-1.594,6.505-2.389,9.964-2.316c2.524-0.023,5.051,0.346,7.461,1.105c2.088,0.621,4.037,1.658,5.723,3.043l-2.584,5.836
		c-1.533-1.129-3.24-2.02-5.039-2.65c-1.708-0.555-3.506-0.83-5.307-0.818c-7.173,0-10.748,4.152-10.748,12.455
		c-0.268,3.426,0.728,6.814,2.791,9.563c2.214,2.236,5.293,3.402,8.431,3.146c2.042,0,4.083-0.266,6.066-0.783v-8.131h-7.277v-5.686
		h14.667L428.791,134.602L428.791,134.602z M521.305,133.334c-7.033,5.387-16.791,5.396-23.814,0.021
		c-2.916-3.193-4.395-7.438-4.082-11.752V99.842h8.072v22.131c-0.172,2.41,0.555,4.811,2.029,6.725
		c3.32,3.092,8.479,3.078,11.785-0.021c1.488-1.902,2.217-4.289,2.055-6.699V99.844h8.072v21.764
		C525.723,125.908,524.234,130.152,521.305,133.334z M613.695,136.908l-6.438-11.832c-0.438-0.816-1.096-1.5-1.9-1.973
		c-0.865-0.428-1.822-0.635-2.791-0.602h-4.063v14.404h-8.117V99.842h17.078c3.529-0.254,7.035,0.762,9.887,2.871
		c2.316,2.109,3.551,5.154,3.344,8.279c0.08,2.549-0.75,5.051-2.342,7.047c-1.707,1.973-4.049,3.299-6.619,3.734
		c2.133,0.658,3.91,2.158,4.9,4.152l6.021,10.98h-8.961V136.908L613.695,136.908z M719.553,128.42
		c-1.406,2.781-3.6,5.088-6.297,6.621c-6.043,3.113-13.217,3.113-19.248,0c-2.711-1.545-4.9-3.84-6.297-6.621
		c-2.953-6.389-2.953-13.744,0-20.135c1.395-2.777,3.586-5.074,6.297-6.598c6.043-3.08,13.205-3.08,19.248,0
		c2.709,1.521,4.9,3.828,6.297,6.598C722.504,114.676,722.504,122.031,719.553,128.42z M811.711,134.348
		c-3.354,2.203-7.334,3.266-11.336,3.021c-2.756,0.023-5.5-0.354-8.143-1.117c-2.342-0.623-4.545-1.686-6.48-3.125l2.629-5.836
		c3.541,2.469,7.764,3.783,12.076,3.734c1.855,0.105,3.699-0.287,5.352-1.129c1.166-0.611,1.881-1.813,1.867-3.125
		c0.014-1.178-0.656-2.262-1.719-2.791c-1.926-0.938-3.979-1.58-6.09-1.949c-2.697-0.482-5.328-1.291-7.83-2.422
		c-1.719-0.75-3.195-1.961-4.268-3.494c-0.936-1.545-1.408-3.322-1.352-5.121c-0.035-2.145,0.623-4.244,1.869-5.996
		c1.35-1.834,3.158-3.252,5.258-4.129c2.469-1.037,5.121-1.559,7.811-1.5c2.582-0.012,5.152,0.381,7.623,1.152
		c2.145,0.611,4.129,1.674,5.822,3.104l-2.631,5.836c-3.078-2.375-6.861-3.688-10.748-3.734c-1.773-0.092-3.527,0.334-5.064,1.232
		c-1.176,0.729-1.879,2.02-1.846,3.393c-0.021,0.762,0.229,1.498,0.717,2.076c0.668,0.668,1.477,1.164,2.375,1.439
		c1.545,0.541,3.113,0.979,4.717,1.313c3.68,0.602,7.197,1.982,10.311,4.049c2.09,1.639,3.254,4.188,3.141,6.838
		C815.887,129.332,814.365,132.445,811.711,134.348z"/>
</g>
<g transform="translate(252.98 367.679)">
	<g transform="translate(0 39.789)">
		<rect x="-252.98" y="-312.405" fill="#E4002B" width="52.819" height="52.82"/>
	</g>
	<rect x="-252.98" y="-367.679" fill="#E4002B" width="52.819" height="52.818"/>
	<g transform="translate(39.793 39.789)">
		<rect x="-197.694" y="-312.405" fill="#E4002B" width="52.82" height="52.82"/>
	</g>
	<g transform="translate(39.793)">
		<rect x="-197.694" y="-367.679" fill="#E4002B" width="52.82" height="52.818"/>
	</g>
</g>
</svg>
